<?xml version="1.0" encoding="UTF-8"?>
<svg width="100pt" height="100pt" version="1.1" viewBox="0 0 100 100" xmlns="http://www.w3.org/2000/svg">
 <g>
  <path d="m50 0c27.668 0 50 22.332 50 50s-22.332 50-50 50-50-22.332-50-50 22.332-50 50-50zm0 3.7227c25.566 0 46.277 20.711 46.277 46.277s-20.711 46.277-46.277 46.277-46.277-20.711-46.277-46.277 20.711-46.277 46.277-46.277z" fill-rule="evenodd"/>
  <path d="m43.852 22.168v55.664h-16.18v-55.664h16.18zm-2.9141 2.9141h-10.52v49.84h10.52z"/>
  <path d="m72.332 22.168v55.664h-16.18v-55.664h16.18zm-2.9141 2.9141h-10.355v49.84h10.355z"/>
 </g>
</svg>
