<?xml version="1.0" encoding="UTF-8"?>
<svg width="100pt" height="100pt" version="1.1" viewBox="0 0 100 100" xmlns="http://www.w3.org/2000/svg">
 <g>
  <path d="m50 94c-11.668 0-22.859-4.6367-31.113-12.887-8.25-8.2539-12.887-19.445-12.887-31.113s4.6367-22.859 12.887-31.113c8.2539-8.25 19.445-12.887 31.113-12.887s22.859 4.6367 31.113 12.887c8.25 8.2539 12.887 19.445 12.887 31.113-0.011719 11.664-4.6523 22.848-12.902 31.098s-19.434 12.891-31.098 12.902zm0-84c-10.609 0-20.781 4.2148-28.285 11.715-7.5 7.5039-11.715 17.676-11.715 28.285s4.2148 20.781 11.715 28.285c7.5039 7.5 17.676 11.715 28.285 11.715s20.781-4.2148 28.285-11.715c7.5-7.5039 11.715-17.676 11.715-28.285s-4.2148-20.781-11.715-28.285c-7.5039-7.5-17.676-11.715-28.285-11.715z"/>
  <path d="m36.199 73v-46l39.852 23zm4-39.09v32.168l27.852-16.078z"/>
 </g>
</svg>
