<?xml version="1.0" encoding="UTF-8"?>
<svg fill="#FFFFFF" width="100pt" height="100pt" version="1.1" viewBox="0 0 100 100" xmlns="http://www.w3.org/2000/svg">
 <g>
  <path d="m29.328 76.18h7.6719c2.2109 0 4-1.7891 4-4 0-2.207-1.7891-4-4-4h-7.6719c-6.4297 0-12.371-3.4297-15.586-9-3.2148-5.5703-3.2148-12.43 0-18 3.2148-5.5703 9.1562-9 15.586-9h17.672c1.4961 0.003906 2.8672-0.83203 3.5547-2.1602 0.69141-1.3281 0.57812-2.9297-0.28516-4.1484l-9.6797-13.68c-1.2891-1.7656-3.7578-2.168-5.5391-0.90625-1.7852 1.2617-2.2266 3.7227-0.99219 5.5234l5.2109 7.3711h-9.9414c-9.2852 0-17.871 4.957-22.516 13-4.6445 8.043-4.6445 17.957 0 26 4.6445 8.043 13.23 13 22.516 13z"/>
  <path d="m70.672 24.18h-7.6719c-2.2109 0-4 1.793-4 4 0 2.2109 1.7891 4 4 4h7.6719c6.4297 0 12.371 3.4297 15.586 9 3.2148 5.5703 3.2148 12.43 0 18-3.2148 5.5703-9.1562 9-15.586 9h-17.672c-1.4648 0-2.8125 0.80078-3.5117 2.0859-0.70312 1.2891-0.64453 2.8555 0.15234 4.0859l8.6016 13.309h-0.003907c1.1992 1.8672 3.6797 2.4102 5.5469 1.2148 1.8672-1.1953 2.4102-3.6797 1.2148-5.5469l-4.6094-7.1406 10.281 0.003906c9.2852 0 17.871-4.957 22.516-13 4.6445-8.0469 4.6445-17.957 0-26-4.6445-8.0469-13.23-13-22.516-13z"/>
 </g>
</svg>
