<svg xmlns="http://www.w3.org/2000/svg" xmlns:xlink="http://www.w3.org/1999/xlink" width="100" height="100" viewBox="0 0 100 100"><g><g transform="translate(50 50) scale(0.69 0.69) rotate(0) translate(-50 -50)" style="fill:#3BB300"><svg fill="#3BB300" xmlns="http://www.w3.org/2000/svg" xmlns:xlink="http://www.w3.org/1999/xlink" version="1.1" x="0px" y="0px" viewBox="0 0 100 100" enable-background="new 0 0 100 100" xml:space="preserve"><path d="M50,29.867c-0.926,0-1.677-0.751-1.677-1.677v-8.759c0-0.926,0.751-1.677,1.677-1.677s1.677,0.751,1.677,1.677v8.759  C51.677,29.116,50.926,29.867,50,29.867z"></path><path d="M92.833,51.71h-8.757c-0.926,0-1.677-0.75-1.677-1.677s0.751-1.677,1.677-1.677h8.757c0.926,0,1.677,0.751,1.677,1.677  S93.759,51.71,92.833,51.71z"></path><path d="M15.926,51.71H7.167c-0.926,0-1.677-0.75-1.677-1.677s0.751-1.677,1.677-1.677h8.759c0.926,0,1.677,0.751,1.677,1.677  S16.852,51.71,15.926,51.71z"></path><path d="M71.509,36.236c-0.463,0-0.924-0.19-1.256-0.564c-0.614-0.693-0.551-1.753,0.142-2.368l8.221-7.295  c0.693-0.614,1.752-0.551,2.368,0.141c0.614,0.693,0.551,1.753-0.142,2.368l-8.221,7.295C72.302,36.096,71.904,36.236,71.509,36.236  z"></path><path d="M28.78,36.236c-0.396,0-0.793-0.139-1.112-0.423l-8.223-7.295c-0.693-0.615-0.756-1.674-0.142-2.367  c0.614-0.693,1.674-0.756,2.367-0.142l8.223,7.295c0.693,0.615,0.756,1.674,0.142,2.367C29.704,36.045,29.243,36.236,28.78,36.236z"></path><path d="M50.142,82.246c-0.926,0-1.677-0.751-1.677-1.677v-8.757c0-0.926,0.751-1.677,1.677-1.677s1.677,0.751,1.677,1.677v8.757  C51.819,81.495,51.068,82.246,50.142,82.246z"></path><path d="M20.416,74.412c-0.463,0-0.924-0.19-1.255-0.563c-0.614-0.693-0.551-1.753,0.142-2.368l8.222-7.293  c0.692-0.614,1.752-0.551,2.368,0.142c0.614,0.693,0.551,1.753-0.142,2.368l-8.222,7.293C21.208,74.273,20.812,74.412,20.416,74.412  z"></path><path d="M79.585,74.413c-0.396,0-0.793-0.139-1.112-0.422l-8.222-7.294c-0.692-0.615-0.756-1.675-0.142-2.368  c0.616-0.691,1.676-0.756,2.368-0.142l8.222,7.294c0.692,0.615,0.756,1.675,0.142,2.368C80.509,74.223,80.048,74.413,79.585,74.413z  "></path><g><path d="M50.001,43.68c-3.646,0-6.613,2.966-6.613,6.61c0,3.646,2.966,6.612,6.613,6.612c3.645,0,6.611-2.967,6.611-6.612   C56.612,46.646,53.646,43.68,50.001,43.68z"></path><path d="M77.771,49.416C70.375,39.489,60.512,34.022,50,34.022c-10.511,0-20.374,5.467-27.771,15.394   c-0.339,0.454-0.339,1.078,0,1.533C29.626,60.875,39.488,66.342,50,66.342c10.512,0,20.375-5.467,27.771-15.393   C78.11,50.494,78.11,49.87,77.771,49.416z M50.001,61.309c-6.076,0-11.02-4.943-11.02-11.019s4.944-11.019,11.02-11.019   c6.076,0,11.018,4.943,11.018,11.019S56.077,61.309,50.001,61.309z"></path></g></svg></g></g></svg>