<svg xmlns="http://www.w3.org/2000/svg" xmlns:xlink="http://www.w3.org/1999/xlink" width="100" height="100" viewBox="0 0 100 100"><g><g transform="translate(50 50) scale(0.69 0.69) rotate(0) translate(-50 -50)" style="fill:#44CC00"><svg fill="#44CC00" xmlns="http://www.w3.org/2000/svg" viewBox="0 0 64 64" x="0px" y="0px"><title>factory-industry-laser-robotics</title><rect x="6" y="27" width="31" height="2"></rect><rect x="2" y="35" width="21" height="2"></rect><rect x="2" y="27" width="2" height="2"></rect><rect x="17" y="31" width="2" height="2"></rect><rect x="21" y="31" width="6" height="2"></rect><rect x="29" y="31" width="6" height="2"></rect><rect x="2" y="31" width="13" height="2"></rect><rect x="39" y="27" width="2" height="2"></rect><rect x="37" y="31" width="2" height="2"></rect><rect x="25" y="35" width="2" height="2"></rect><rect x="29" y="35" width="7" height="2"></rect><rect x="39" y="35" width="2" height="2"></rect><path d="M44.5,27c-1.727,0-2.5,2.511-2.5,5s.773,5,2.5,5S47,34.489,47,32,46.227,27,44.5,27Z"></path><path d="M50.781,37.035A11.878,11.878,0,0,1,50,32a11.878,11.878,0,0,1,.781-5.035L55,26.2V37.8ZM60,39.78l-3-.6V24.819l3-.6Z"></path><path d="M53.35,34.438l-.2-1.027-1.961.387.333,1.693a1,1,0,0,0,.8.79l1.437.265.363-1.967Z"></path></svg></g></g></svg>