<svg xmlns="http://www.w3.org/2000/svg" xmlns:xlink="http://www.w3.org/1999/xlink" width="100" height="100" viewBox="0 0 100 100"><g><g transform="translate(50 50) scale(0.69 0.69) rotate(0) translate(-50 -50)" style="fill:#E60000"><svg fill="#E60000" xmlns:x="http://ns.adobe.com/Extensibility/1.0/" xmlns:i="http://ns.adobe.com/AdobeIllustrator/10.0/" xmlns:graph="http://ns.adobe.com/Graphs/1.0/" xmlns="http://www.w3.org/2000/svg" xmlns:xlink="http://www.w3.org/1999/xlink" version="1.1" x="0px" y="0px" viewBox="0 0 100 100" style="enable-background:new 0 0 100 100;" xml:space="preserve"><g><g i:extraneous="self"><g><path d="M5273.1,2400.1v-2c0-2.8-5-4-9.7-4s-9.7,1.3-9.7,4v2c0,1.8,0.7,3.6,2,4.9l5,4.9c0.3,0.3,0.4,0.6,0.4,1v6.4     c0,0.4,0.2,0.7,0.6,0.8l2.9,0.9c0.5,0.1,1-0.2,1-0.8v-7.2c0-0.4,0.2-0.7,0.4-1l5.1-5C5272.4,2403.7,5273.1,2401.9,5273.1,2400.1z      M5263.4,2400c-4.8,0-7.4-1.3-7.5-1.8v0c0.1-0.5,2.7-1.8,7.5-1.8c4.8,0,7.3,1.3,7.5,1.8C5270.7,2398.7,5268.2,2400,5263.4,2400z"></path><path d="M5268.4,2410.3c-0.6,0-1,0.4-1,1c0,0.6,0.4,1,1,1h4.3c0.6,0,1-0.4,1-1c0-0.6-0.4-1-1-1H5268.4z"></path><path d="M5272.7,2413.7h-4.3c-0.6,0-1,0.4-1,1c0,0.6,0.4,1,1,1h4.3c0.6,0,1-0.4,1-1C5273.7,2414.1,5273.3,2413.7,5272.7,2413.7z"></path><path d="M5272.7,2417h-4.3c-0.6,0-1,0.4-1,1c0,0.6,0.4,1,1,1h4.3c0.6,0,1-0.4,1-1C5273.7,2417.5,5273.3,2417,5272.7,2417z"></path></g><g><path d="M95.7,45.2c-5.4-5.4-11.6-9.6-18.3-12.7c0.1-0.8,0.2-1.6,0.2-2.4C77.6,14.9,65.2,2.5,50,2.5c-15.2,0-27.6,12.4-27.6,27.6     c0,0.8,0.2,1.6,0.2,2.4c-6.7,3.1-12.9,7.4-18.3,12.8c-1.5,1.4-1.5,3.8,0,5.3C5,51.3,6,51.7,7,51.7c1,0,1.9-0.4,2.7-1.1     C14,46.2,19,42.7,24.4,40c1.5,3.8,3.7,7.1,6.6,9.9c-4.7,2.2-9.1,5.2-12.9,9c-1.5,1.5-1.5,3.9,0,5.3c0.7,0.8,1.7,1.1,2.6,1.1     c0.9,0,1.9-0.4,2.7-1.1c4.4-4.4,9.6-7.4,15.2-9.2c3.5,1.6,7.4,2.6,11.5,2.6c4.1,0,8-1,11.5-2.6c5.5,1.8,10.8,4.8,15.2,9.2     c1.5,1.4,3.9,1.4,5.3,0c1.5-1.5,1.5-3.9,0-5.3c-3.8-3.8-8.2-6.8-12.9-9c2.9-2.8,5.1-6.1,6.6-9.9C81,42.7,86,46.2,90.3,50.5     c1.5,1.4,3.9,1.4,5.3,0C97.2,49,97.2,46.6,95.7,45.2z M50,50.1c-11,0-20-9-20-20s9-20,20-20s20,9,20,20S61,50.1,50,50.1z"></path><path d="M31.7,72.6c-1.5,1.5-1.5,3.9,0,5.3c0.7,0.7,1.7,1.1,2.7,1.1s1.9-0.4,2.7-1.1c7.2-7.2,18.9-7.2,26,0     c1.5,1.5,3.9,1.5,5.3,0c1.5-1.5,1.5-3.9,0-5.3C58.2,62.4,41.8,62.4,31.7,72.6z"></path><path d="M50,84.3c-3.6,0-6.6,3-6.6,6.6c0,3.7,3,6.6,6.6,6.6c3.7,0,6.6-3,6.6-6.6C56.6,87.2,53.7,84.3,50,84.3z"></path><path d="M60,20.1c-1.5-1.5-3.8-1.5-5.3,0L50,24.7l-4.7-4.7c-1.5-1.5-3.9-1.5-5.3,0s-1.5,3.9,0,5.3l4.7,4.7L40,34.7     c-1.5,1.5-1.5,3.9,0,5.3c0.7,0.7,1.7,1.1,2.7,1.1c1,0,1.9-0.4,2.7-1.1l4.7-4.7l4.7,4.7c0.7,0.7,1.7,1.1,2.7,1.1     c1,0,1.9-0.4,2.7-1.1c1.5-1.5,1.5-3.9,0-5.3l-4.7-4.7l4.7-4.7C61.5,23.9,61.5,21.5,60,20.1z"></path></g></g></g></svg></g></g></svg>