<svg xmlns="http://www.w3.org/2000/svg" xmlns:xlink="http://www.w3.org/1999/xlink" width="100" height="100" viewBox="0 0 100 100"><g><g transform="translate(50 50) scale(0.69 0.69) rotate(0) translate(-50 -50)" style="fill:#3BB300"><svg fill="#3BB300" xmlns:x="http://ns.adobe.com/Extensibility/1.0/" xmlns:i="http://ns.adobe.com/AdobeIllustrator/10.0/" xmlns:graph="http://ns.adobe.com/Graphs/1.0/" xmlns="http://www.w3.org/2000/svg" xmlns:xlink="http://www.w3.org/1999/xlink" version="1.1" x="0px" y="0px" viewBox="0 0 100 100" style="enable-background:new 0 0 100 100;" xml:space="preserve"><g><g i:extraneous="self"><g><path d="M74.3,25.1c-0.9-1.7-3.2-2-4.6-0.7l-0.2,0.2c-1,0.9-1.3,2.4-0.6,3.6c0.8,1.5,1.3,3.2,1.3,5c0,1.8-0.5,3.5-1.3,5     c-0.7,1.2-0.4,2.7,0.6,3.6l0.2,0.2c1.4,1.3,3.7,1,4.6-0.7c1.4-2.4,2.1-5.2,2.1-8.1C76.5,30.3,75.7,27.6,74.3,25.1z"></path><path d="M82.1,17.8c-1-1.5-3.1-1.7-4.5-0.5l-0.2,0.2c-1.1,1-1.3,2.7-0.4,4c2.3,3.4,3.7,7.5,3.7,11.9s-1.4,8.5-3.7,11.9     c-0.9,1.3-0.7,3,0.4,4l0.2,0.2c1.3,1.2,3.5,1,4.5-0.5c3.1-4.4,4.9-9.7,4.9-15.5C87,27.5,85.2,22.2,82.1,17.8z"></path><path d="M89.9,10.6c-1.1-1.4-3.1-1.6-4.4-0.4l-0.2,0.2c-1.2,1.1-1.3,2.8-0.3,4.1c4,5.2,6.3,11.8,6.3,18.8s-2.4,13.6-6.3,18.8     c-1,1.3-0.8,3,0.3,4.1l0.2,0.2c1.3,1.2,3.4,1,4.4-0.4c4.8-6.3,7.6-14.2,7.6-22.7C97.5,24.8,94.7,16.9,89.9,10.6z"></path><path d="M32.1,6.1C15.8,6.1,2.5,19.4,2.5,35.7C2.5,37.5,4,39,5.8,39s3.3-1.5,3.3-3.3c0-12.7,10.3-23,23-23     c13.8,0,22.4,8.4,22.4,21.8c0,5.4-3.2,9.7-6.6,14.2c-3.3,4.4-6.8,9-7.5,15.1c-1.3,11.4-5.7,23.5-13.9,23.5     c-8.2,0-11.8-6.7-11.8-13.3c0-1.8-1.5-3.3-3.3-3.3S8.2,72.2,8.2,74c0,9.9,6.3,19.9,18.4,19.9c10.6,0,18.3-11,20.4-29.4     c0.5-4.3,3.3-8,6.2-11.9c3.7-4.9,7.9-10.5,7.9-18.1C61.1,17.5,49.5,6.1,32.1,6.1z"></path><path d="M32.2,25.3c4.6,0,9.3,2.2,9.3,7c0,1.8,1.5,3.3,3.3,3.3s3.3-1.5,3.3-3.3c0-7.9-6.7-13.6-15.9-13.6c-4.7,0-9.6,2.3-13,6.1     c-3.1,3.4-4.6,7.5-4.2,11.4c0.3,3.2,2.2,6.1,4.3,9c3.6,5.3,3.6,11.9,1.6,16.3c-3.1,6.8,4.7,10.8,9.5,7.5     c3.7-2.5,2.1-11.3-0.2-17.6c-0.5-1.5-1.1-2.8-1.8-4.1c-0.1-0.3-0.3-0.6-0.4-0.8c0,0,0,0,0-0.1c-1-1.7-2.1-3.3-3-4.7     c-1.6-2.3-3.1-4.5-3.3-6.1c-0.2-2.1,0.7-4.4,2.5-6.4C26.3,26.8,29.4,25.3,32.2,25.3z"></path></g></g></g></svg></g></g></svg>