<svg xmlns="http://www.w3.org/2000/svg" xmlns:xlink="http://www.w3.org/1999/xlink" width="100" height="100" viewBox="0 0 100 100"><g><g transform="translate(50 50) scale(0.69 0.69) rotate(0) translate(-50 -50)" style="fill:#44CC00"><svg fill="#44CC00" xmlns:x="http://ns.adobe.com/Extensibility/1.0/" xmlns:i="http://ns.adobe.com/AdobeIllustrator/10.0/" xmlns:graph="http://ns.adobe.com/Graphs/1.0/" xmlns="http://www.w3.org/2000/svg" xmlns:xlink="http://www.w3.org/1999/xlink" version="1.1" x="0px" y="0px" viewBox="0 0 100 100" style="enable-background:new 0 0 100 100;" xml:space="preserve"><g><g i:extraneous="self"><g><path d="M5273.1,2400.1v-2c0-2.8-5-4-9.7-4s-9.7,1.3-9.7,4v2c0,1.8,0.7,3.6,2,4.9l5,4.9c0.3,0.3,0.4,0.6,0.4,1v6.4     c0,0.4,0.2,0.7,0.6,0.8l2.9,0.9c0.5,0.1,1-0.2,1-0.8v-7.2c0-0.4,0.2-0.7,0.4-1l5.1-5C5272.4,2403.7,5273.1,2401.9,5273.1,2400.1z      M5263.4,2400c-4.8,0-7.4-1.3-7.5-1.8v0c0.1-0.5,2.7-1.8,7.5-1.8c4.8,0,7.3,1.3,7.5,1.8C5270.7,2398.7,5268.2,2400,5263.4,2400z"></path><path d="M5268.4,2410.3c-0.6,0-1,0.4-1,1c0,0.6,0.4,1,1,1h4.3c0.6,0,1-0.4,1-1c0-0.6-0.4-1-1-1H5268.4z"></path><path d="M5272.7,2413.7h-4.3c-0.6,0-1,0.4-1,1c0,0.6,0.4,1,1,1h4.3c0.6,0,1-0.4,1-1C5273.7,2414.1,5273.3,2413.7,5272.7,2413.7z"></path><path d="M5272.7,2417h-4.3c-0.6,0-1,0.4-1,1c0,0.6,0.4,1,1,1h4.3c0.6,0,1-0.4,1-1C5273.7,2417.5,5273.3,2417,5272.7,2417z"></path></g><g><circle cx="12" cy="73.9" r="9.5"></circle><circle cx="88" cy="28" r="9.5"></circle><path d="M62.7,17.6c-1.4-1.4-3.7-1.4-5,0c-1.4,1.4-1.4,3.7,0,5l1.8,1.8H41.2c-8.3,0-15,6.7-15,15c0,8.3,6.8,15,15,15h6.8     c4.4,0,7.9,3.5,7.9,7.9c0,4.3-3.5,7.9-7.9,7.9H27.3c0.3,1.1,0.4,2.3,0.4,3.6s-0.1,2.4-0.4,3.6h20.6c8.3,0,15-6.8,15-15     c0-8.3-6.8-15-15-15h-6.8c-4.4,0-7.9-3.6-7.9-7.9c0-4.4,3.5-7.9,7.9-7.9h18.2l-1.7,1.7c-1.4,1.4-1.4,3.7,0,5c0.7,0.7,1.6,1,2.5,1     s1.8-0.3,2.5-1l7.8-7.8c1.4-1.4,1.4-3.7,0-5L62.7,17.6z"></path></g></g></g></svg></g></g></svg>