<svg xmlns="http://www.w3.org/2000/svg" xmlns:xlink="http://www.w3.org/1999/xlink" width="100" height="100" viewBox="0 0 100 100"><g><g transform="translate(50 50) scale(0.69 0.69) rotate(0) translate(-50 -50)" style="fill:#3BB300"><svg fill="#3BB300" xmlns="http://www.w3.org/2000/svg" data-name="Layer 1" viewBox="0 0 100 100" x="0px" y="0px"><title>mood, quiet, sleep, zzz</title><g><path d="M52.35533,8.54176A6.63461,6.63461,0,0,0,46.2108,4.43824H22.20689a4,4,0,0,0,0,8H42.953L19.22642,36.16676a6.64975,6.64975,0,0,0,4.70313,11.35156H48.371a4,4,0,0,0,0-8H27.18736L50.91783,15.7898A6.63844,6.63844,0,0,0,52.35533,8.54176Z"></path><path d="M47.69908,65.50074a5.72876,5.72876,0,0,0-5.30469-3.54492H26.61314a4,4,0,0,0,0,8H37.21471L23.69127,84.532A5.73981,5.73981,0,0,0,27.746,94.33473h16.0664a4,4,0,0,0,0-8H32.92564L46.453,71.75855A5.728,5.728,0,0,0,47.69908,65.50074Z"></path><path d="M80.35142,61.95582H69.92955l13.0625-12.457a5.74159,5.74159,0,0,0-4.05859-9.80274H63.15221a4,4,0,0,0,0,8H73.29283L60.22642,60.155a5.74,5.74,0,0,0,4.0586,9.80078h16.0664a4,4,0,0,0,0-8Z"></path></g></svg></g></g></svg>