<svg xmlns="http://www.w3.org/2000/svg" xmlns:xlink="http://www.w3.org/1999/xlink" width="100" height="100" viewBox="0 0 100 100"><g><g transform="translate(50 50) scale(0.69 0.69) rotate(0) translate(-50 -50)" style="fill:#44CC00"><svg fill="#44CC00" xmlns="http://www.w3.org/2000/svg" xmlns:xlink="http://www.w3.org/1999/xlink" version="1.1" x="0px" y="0px" viewBox="0 0 64 64" enable-background="new 0 0 64 64" xml:space="preserve"><g><path fill="#44CC00" d="M31.917,38.503h-4.811l6.557-6.558l-6.7-6.696h4.815l6.697,6.696L31.917,38.503z M32,22.453   c-5.264,0-9.547,4.282-9.547,9.546c0,5.265,4.283,9.548,9.547,9.548c5.265,0,9.546-4.283,9.546-9.548   C41.547,26.735,37.266,22.453,32,22.453"></path><path fill="#44CC00" d="M32,44.426c-6.853,0-12.427-5.573-12.427-12.427c0-6.852,5.574-12.427,12.427-12.427   c6.853,0,12.427,5.575,12.427,12.427C44.428,38.853,38.854,44.426,32,44.426 M44.029,14.729H20.032   c-2.962,0-5.393,2.341-5.393,5.302v23.88c0,2.961,2.401,5.361,5.362,5.361h23.997c2.961,0,5.363-2.4,5.363-5.361V20.03   C49.361,17.069,46.988,14.729,44.029,14.729"></path></g></svg></g></g></svg>